<svg width="249" height="39" viewBox="0 0 249 39" fill="none" xmlns="http://www.w3.org/2000/svg">
<path d="M66.58 10.852V29H62.94V17.196L58.078 29H55.322L50.434 17.196V29H46.794V10.852H50.928L56.7 24.346L62.472 10.852H66.58ZM78.8628 29.182C77.1641 29.182 75.6041 28.7833 74.1828 27.986C72.7614 27.1887 71.6348 26.088 70.8028 24.684C69.9708 23.2627 69.5548 21.6593 69.5548 19.874C69.5548 18.106 69.9708 16.52 70.8028 15.116C71.6348 13.6947 72.7614 12.5853 74.1828 11.788C75.6041 10.9907 77.1641 10.592 78.8628 10.592C80.5788 10.592 82.1388 10.9907 83.5428 11.788C84.9641 12.5853 86.0821 13.6947 86.8968 15.116C87.7288 16.52 88.1448 18.106 88.1448 19.874C88.1448 21.6593 87.7288 23.2627 86.8968 24.684C86.0821 26.088 84.9641 27.1887 83.5428 27.986C82.1214 28.7833 80.5614 29.182 78.8628 29.182ZM78.8628 25.932C79.9548 25.932 80.9168 25.6893 81.7488 25.204C82.5808 24.7013 83.2308 23.9907 83.6988 23.072C84.1668 22.1533 84.4008 21.0873 84.4008 19.874C84.4008 18.6607 84.1668 17.6033 83.6988 16.702C83.2308 15.7833 82.5808 15.0813 81.7488 14.596C80.9168 14.1107 79.9548 13.868 78.8628 13.868C77.7708 13.868 76.8001 14.1107 75.9508 14.596C75.1188 15.0813 74.4688 15.7833 74.0008 16.702C73.5328 17.6033 73.2988 18.6607 73.2988 19.874C73.2988 21.0873 73.5328 22.1533 74.0008 23.072C74.4688 23.9907 75.1188 24.7013 75.9508 25.204C76.8001 25.6893 77.7708 25.932 78.8628 25.932ZM100.473 29L96.4688 21.928H94.7528V29H91.1128V10.852H97.9248C99.3288 10.852 100.525 11.1033 101.513 11.606C102.501 12.0913 103.237 12.7587 103.723 13.608C104.225 14.44 104.477 15.376 104.477 16.416C104.477 17.612 104.13 18.6953 103.437 19.666C102.743 20.6193 101.712 21.278 100.343 21.642L104.685 29H100.473ZM94.7528 19.198H97.7948C98.7828 19.198 99.5195 18.964 100.005 18.496C100.49 18.0107 100.733 17.3433 100.733 16.494C100.733 15.662 100.49 15.0207 100.005 14.57C99.5195 14.102 98.7828 13.868 97.7948 13.868H94.7528V19.198ZM119.157 25.542H111.929L110.733 29H106.911L113.437 10.826H117.675L124.201 29H120.353L119.157 25.542ZM118.169 22.63L115.543 15.038L112.917 22.63H118.169ZM132.472 19.9C132.472 18.1147 132.87 16.52 133.668 15.116C134.482 13.6947 135.583 12.594 136.97 11.814C138.374 11.0167 139.942 10.618 141.676 10.618C143.704 10.618 145.48 11.138 147.006 12.178C148.531 13.218 149.597 14.6567 150.204 16.494H146.018C145.602 15.6273 145.012 14.9773 144.25 14.544C143.504 14.1107 142.638 13.894 141.65 13.894C140.592 13.894 139.648 14.1453 138.816 14.648C138.001 15.1333 137.36 15.8267 136.892 16.728C136.441 17.6293 136.216 18.6867 136.216 19.9C136.216 21.096 136.441 22.1533 136.892 23.072C137.36 23.9733 138.001 24.6753 138.816 25.178C139.648 25.6633 140.592 25.906 141.65 25.906C142.638 25.906 143.504 25.6893 144.25 25.256C145.012 24.8053 145.602 24.1467 146.018 23.28H150.204C149.597 25.1347 148.531 26.582 147.006 27.622C145.498 28.6447 143.721 29.156 141.676 29.156C139.942 29.156 138.374 28.766 136.97 27.986C135.583 27.1887 134.482 26.088 133.668 24.684C132.87 23.28 132.472 21.6853 132.472 19.9ZM164.701 25.542H157.473L156.277 29H152.455L158.981 10.826H163.219L169.745 29H165.897L164.701 25.542ZM163.713 22.63L161.087 15.038L158.461 22.63H163.713ZM181.804 29L177.8 21.928H176.084V29H172.444V10.852H179.256C180.66 10.852 181.856 11.1033 182.844 11.606C183.832 12.0913 184.569 12.7587 185.054 13.608C185.557 14.44 185.808 15.376 185.808 16.416C185.808 17.612 185.461 18.6953 184.768 19.666C184.075 20.6193 183.043 21.278 181.674 21.642L186.016 29H181.804ZM176.084 19.198H179.126C180.114 19.198 180.851 18.964 181.336 18.496C181.821 18.0107 182.064 17.3433 182.064 16.494C182.064 15.662 181.821 15.0207 181.336 14.57C180.851 14.102 180.114 13.868 179.126 13.868H176.084V19.198ZM198.72 29L194.716 21.928H193V29H189.36V10.852H196.172C197.576 10.852 198.772 11.1033 199.76 11.606C200.748 12.0913 201.485 12.7587 201.97 13.608C202.473 14.44 202.724 15.376 202.724 16.416C202.724 17.612 202.378 18.6953 201.684 19.666C200.991 20.6193 199.96 21.278 198.59 21.642L202.932 29H198.72ZM193 19.198H196.042C197.03 19.198 197.767 18.964 198.252 18.496C198.738 18.0107 198.98 17.3433 198.98 16.494C198.98 15.662 198.738 15.0207 198.252 14.57C197.767 14.102 197.03 13.868 196.042 13.868H193V19.198ZM214.701 29.182C213.002 29.182 211.442 28.7833 210.021 27.986C208.599 27.1887 207.473 26.088 206.641 24.684C205.809 23.2627 205.393 21.6593 205.393 19.874C205.393 18.106 205.809 16.52 206.641 15.116C207.473 13.6947 208.599 12.5853 210.021 11.788C211.442 10.9907 213.002 10.592 214.701 10.592C216.417 10.592 217.977 10.9907 219.381 11.788C220.802 12.5853 221.92 13.6947 222.735 15.116C223.567 16.52 223.983 18.106 223.983 19.874C223.983 21.6593 223.567 23.2627 222.735 24.684C221.92 26.088 220.802 27.1887 219.381 27.986C217.959 28.7833 216.399 29.182 214.701 29.182ZM214.701 25.932C215.793 25.932 216.755 25.6893 217.587 25.204C218.419 24.7013 219.069 23.9907 219.537 23.072C220.005 22.1533 220.239 21.0873 220.239 19.874C220.239 18.6607 220.005 17.6033 219.537 16.702C219.069 15.7833 218.419 15.0813 217.587 14.596C216.755 14.1107 215.793 13.868 214.701 13.868C213.609 13.868 212.638 14.1107 211.789 14.596C210.957 15.0813 210.307 15.7833 209.839 16.702C209.371 17.6033 209.137 18.6607 209.137 19.874C209.137 21.0873 209.371 22.1533 209.839 23.072C210.307 23.9907 210.957 24.7013 211.789 25.204C212.638 25.6893 213.609 25.932 214.701 25.932ZM246.737 10.852V29H243.097V17.196L238.235 29H235.479L230.591 17.196V29H226.951V10.852H231.085L236.857 24.346L242.629 10.852H246.737Z" fill="black"/>
<path d="M18.5003 35.8876C17.4674 35.8876 16.419 35.6564 15.602 35.1784L7.12284 30.2914C3.66951 27.9634 3.45367 27.6089 3.45367 23.9551V15.0443C3.45367 11.3905 3.65409 11.0359 7.04576 8.73887L15.5865 3.80553C17.2053 2.86512 19.749 2.86512 21.3678 3.80553L29.8778 8.70803C33.3311 11.0359 33.547 11.3905 33.547 15.0443V23.9397C33.547 27.5934 33.3465 27.948 29.9549 30.2451L21.414 35.1784C20.5815 35.6564 19.5332 35.8876 18.5003 35.8876ZM18.5003 5.42428C17.8528 5.42428 17.2207 5.54762 16.7736 5.8097L8.29451 10.7122C5.78159 12.408 5.78159 12.408 5.78159 15.0443V23.9397C5.78159 26.5759 5.78159 26.5759 8.35617 28.318L16.7736 33.1743C17.6832 33.6984 19.3328 33.6984 20.2424 33.1743L28.7215 28.2718C31.219 26.5759 31.219 26.5759 31.219 23.9397V15.0443C31.219 12.408 31.219 12.408 28.6445 10.6659L20.227 5.8097C19.7799 5.54762 19.1478 5.42428 18.5003 5.42428Z" fill="black"/>
<path d="M18.5 25.2812C15.3088 25.2812 12.7188 22.6912 12.7188 19.5C12.7188 16.3088 15.3088 13.7188 18.5 13.7188C21.6912 13.7188 24.2812 16.3088 24.2812 19.5C24.2812 22.6912 21.6912 25.2812 18.5 25.2812ZM18.5 16.0312C16.5883 16.0312 15.0312 17.5883 15.0312 19.5C15.0312 21.4117 16.5883 22.9688 18.5 22.9688C20.4117 22.9688 21.9688 21.4117 21.9688 19.5C21.9688 17.5883 20.4117 16.0312 18.5 16.0312Z" fill="black"/>
</svg>
